<?xml version="1.0" encoding="UTF-8" standalone="no"?>
<!DOCTYPE svg PUBLIC "-//W3C//DTD SVG 1.1//EN"
 "http://www.w3.org/Graphics/SVG/1.1/DTD/svg11.dtd">
<!-- Generated by graphviz version 12.1.2 (20240928.0832)
 -->
<!-- Title: PQTree Pages: 1 -->
<svg width="186pt" height="188pt"
 viewBox="0.00 0.00 186.05 188.00" xmlns="http://www.w3.org/2000/svg" xmlns:xlink="http://www.w3.org/1999/xlink">
<g id="graph0" class="graph" transform="scale(1 1) rotate(0) translate(4 184)">
<title>PQTree</title>
<!-- n0 -->
<g id="node1" class="node">
<title>n0</title>
<ellipse fill="white" stroke="black" cx="69.72" cy="-162" rx="27" ry="18"/>
<text text-anchor="middle" x="69.72" y="-157.8" font-family="SF Mono, Menlo, monospace" font-size="14.00">P</text>
</g>
<!-- n1 -->
<g id="node2" class="node">
<title>n1</title>
<path fill="white" stroke="black" d="M51.44,-108C51.44,-108 12,-108 12,-108 6,-108 0,-102 0,-96 0,-96 0,-84 0,-84 0,-78 6,-72 12,-72 12,-72 51.44,-72 51.44,-72 57.44,-72 63.44,-78 63.44,-84 63.44,-84 63.44,-96 63.44,-96 63.44,-102 57.44,-108 51.44,-108"/>
<text text-anchor="middle" x="31.72" y="-85.8" font-family="SF Mono, Menlo, monospace" font-size="14.00">Logging</text>
</g>
<!-- n0&#45;&gt;n1 -->
<g id="edge1" class="edge">
<title>n0&#45;&gt;n1</title>
<path fill="none" stroke="black" d="M60.91,-144.76C54.94,-133.78 47.08,-119.29 41.02,-108.12"/>
</g>
<!-- n2 -->
<g id="node3" class="node">
<title>n2</title>
<ellipse fill="white" stroke="black" cx="108.72" cy="-90" rx="27" ry="18"/>
<text text-anchor="middle" x="108.72" y="-85.8" font-family="SF Mono, Menlo, monospace" font-size="14.00">P</text>
</g>
<!-- n0&#45;&gt;n2 -->
<g id="edge2" class="edge">
<title>n0&#45;&gt;n2</title>
<path fill="none" stroke="black" d="M78.77,-144.76C85.07,-133.46 93.43,-118.44 99.72,-107.15"/>
</g>
<!-- n3 -->
<g id="node4" class="node">
<title>n3</title>
<path fill="white" stroke="black" d="M85.72,-36C85.72,-36 55.72,-36 55.72,-36 49.72,-36 43.72,-30 43.72,-24 43.72,-24 43.72,-12 43.72,-12 43.72,-6 49.72,0 55.72,0 55.72,0 85.72,0 85.72,0 91.72,0 97.72,-6 97.72,-12 97.72,-12 97.72,-24 97.72,-24 97.72,-30 91.72,-36 85.72,-36"/>
<text text-anchor="middle" x="70.72" y="-13.8" font-family="SF Mono, Menlo, monospace" font-size="14.00">Auth</text>
</g>
<!-- n2&#45;&gt;n3 -->
<g id="edge3" class="edge">
<title>n2&#45;&gt;n3</title>
<path fill="none" stroke="black" d="M99.91,-72.76C93.94,-61.78 86.08,-47.29 80.02,-36.12"/>
</g>
<!-- n4 -->
<g id="node5" class="node">
<title>n4</title>
<path fill="white" stroke="black" d="M166.05,-36C166.05,-36 127.39,-36 127.39,-36 121.39,-36 115.39,-30 115.39,-24 115.39,-24 115.39,-12 115.39,-12 115.39,-6 121.39,0 127.39,0 127.39,0 166.05,0 166.05,0 172.05,0 178.05,-6 178.05,-12 178.05,-12 178.05,-24 178.05,-24 178.05,-30 172.05,-36 166.05,-36"/>
<text text-anchor="middle" x="146.72" y="-13.8" font-family="SF Mono, Menlo, monospace" font-size="14.00">Caching</text>
</g>
<!-- n2&#45;&gt;n4 -->
<g id="edge4" class="edge">
<title>n2&#45;&gt;n4</title>
<path fill="none" stroke="black" d="M117.53,-72.76C123.5,-61.78 131.36,-47.29 137.42,-36.12"/>
</g>
</g>
</svg>
