<?xml version="1.0" encoding="UTF-8" standalone="no"?>
<!DOCTYPE svg PUBLIC "-//W3C//DTD SVG 1.1//EN"
 "http://www.w3.org/Graphics/SVG/1.1/DTD/svg11.dtd">
<!-- Generated by graphviz version 12.1.2 (20240928.0832)
 -->
<!-- Title: G Pages: 1 -->
<svg xmlns="http://www.w3.org/2000/svg" viewBox="0 0 275.44 209.60" width="275" height="210">
<g id="graph0" class="graph" transform="scale(1 1) rotate(0) translate(4 205.6)">
<title>G</title>
<!-- Auth -->
<g id="node1" class="node">
<title>Auth</title>
<path fill="white" stroke="black" d="M113.12,-201.6C113.12,-201.6 60.32,-201.6 60.32,-201.6 54.32,-201.6 48.32,-195.6 48.32,-189.6 48.32,-189.6 48.32,-170.4 48.32,-170.4 48.32,-164.4 54.32,-158.4 60.32,-158.4 60.32,-158.4 113.12,-158.4 113.12,-158.4 119.12,-158.4 125.12,-164.4 125.12,-170.4 125.12,-170.4 125.12,-189.6 125.12,-189.6 125.12,-195.6 119.12,-201.6 113.12,-201.6"/>
<text text-anchor="middle" x="86.72" y="-172.8" font-family="Times,serif" font-size="24.00">Auth</text>
</g>
<!-- Sep_1_Logging_Metrics -->
<g id="node5" class="node">
<title>Sep_1_Logging_Metrics</title>
<path fill="white" stroke="black" d="M255.44,-122.4C255.44,-122.4 12,-122.4 12,-122.4 6,-122.4 0,-116.4 0,-110.4 0,-110.4 0,-91.2 0,-91.2 0,-85.2 6,-79.2 12,-79.2 12,-79.2 255.44,-79.2 255.44,-79.2 261.44,-79.2 267.44,-85.2 267.44,-91.2 267.44,-91.2 267.44,-110.4 267.44,-110.4 267.44,-116.4 261.44,-122.4 255.44,-122.4"/>
<text text-anchor="middle" x="133.72" y="-93.6" font-family="Times,serif" font-size="24.00">Sep_1_Logging_Metrics</text>
</g>
<!-- Auth&#45;&gt;Sep_1_Logging_Metrics -->
<g id="edge1" class="edge">
<title>Auth&#45;&gt;Sep_1_Logging_Metrics</title>
<path fill="none" stroke="black" d="M99.56,-157.9C104.33,-150.08 109.84,-141.03 115.02,-132.51"/>
<polygon fill="black" stroke="black" points="117.9,-134.52 120.11,-124.16 111.92,-130.88 117.9,-134.52"/>
</g>
<!-- API -->
<g id="node2" class="node">
<title>API</title>
<path fill="white" stroke="black" d="M202.46,-201.6C202.46,-201.6 158.98,-201.6 158.98,-201.6 152.98,-201.6 146.98,-195.6 146.98,-189.6 146.98,-189.6 146.98,-170.4 146.98,-170.4 146.98,-164.4 152.98,-158.4 158.98,-158.4 158.98,-158.4 202.46,-158.4 202.46,-158.4 208.46,-158.4 214.46,-164.4 214.46,-170.4 214.46,-170.4 214.46,-189.6 214.46,-189.6 214.46,-195.6 208.46,-201.6 202.46,-201.6"/>
<text text-anchor="middle" x="180.72" y="-172.8" font-family="Times,serif" font-size="24.00">API</text>
</g>
<!-- API&#45;&gt;Sep_1_Logging_Metrics -->
<g id="edge2" class="edge">
<title>API&#45;&gt;Sep_1_Logging_Metrics</title>
<path fill="none" stroke="black" d="M167.88,-157.9C163.11,-150.08 157.6,-141.03 152.42,-132.51"/>
<polygon fill="black" stroke="black" points="155.52,-130.88 147.33,-124.16 149.55,-134.52 155.52,-130.88"/>
</g>
<!-- Logging -->
<g id="node3" class="node">
<title>Logging</title>
<path fill="white" stroke="black" d="M112.78,-43.2C112.78,-43.2 26.66,-43.2 26.66,-43.2 20.66,-43.2 14.66,-37.2 14.66,-31.2 14.66,-31.2 14.66,-12 14.66,-12 14.66,-6 20.66,0 26.66,0 26.66,0 112.78,0 112.78,0 118.78,0 124.78,-6 124.78,-12 124.78,-12 124.78,-31.2 124.78,-31.2 124.78,-37.2 118.78,-43.2 112.78,-43.2"/>
<text text-anchor="middle" x="69.72" y="-14.4" font-family="Times,serif" font-size="24.00">Logging</text>
</g>
<!-- Metrics -->
<g id="node4" class="node">
<title>Metrics</title>
<path fill="white" stroke="black" d="M236.78,-43.2C236.78,-43.2 158.66,-43.2 158.66,-43.2 152.66,-43.2 146.66,-37.2 146.66,-31.2 146.66,-31.2 146.66,-12 146.66,-12 146.66,-6 152.66,0 158.66,0 158.66,0 236.78,0 236.78,0 242.78,0 248.78,-6 248.78,-12 248.78,-12 248.78,-31.2 248.78,-31.2 248.78,-37.2 242.78,-43.2 236.78,-43.2"/>
<text text-anchor="middle" x="197.72" y="-14.4" font-family="Times,serif" font-size="24.00">Metrics</text>
</g>
<!-- Sep_1_Logging_Metrics&#45;&gt;Logging -->
<g id="edge3" class="edge">
<title>Sep_1_Logging_Metrics&#45;&gt;Logging</title>
<path fill="none" stroke="black" d="M116.23,-78.7C109.53,-70.62 101.75,-61.24 94.49,-52.48"/>
<polygon fill="black" stroke="black" points="97.23,-50.3 88.15,-44.83 91.84,-54.77 97.23,-50.3"/>
</g>
<!-- Sep_1_Logging_Metrics&#45;&gt;Metrics -->
<g id="edge4" class="edge">
<title>Sep_1_Logging_Metrics&#45;&gt;Metrics</title>
<path fill="none" stroke="black" d="M151.21,-78.7C157.91,-70.62 165.69,-61.24 172.95,-52.48"/>
<polygon fill="black" stroke="black" points="175.6,-54.77 179.29,-44.83 170.21,-50.3 175.6,-54.77"/>
</g>
</g>
</svg>
