<?xml version="1.0" encoding="UTF-8" standalone="no"?>
<!DOCTYPE svg PUBLIC "-//W3C//DTD SVG 1.1//EN"
 "http://www.w3.org/Graphics/SVG/1.1/DTD/svg11.dtd">
<!-- Generated by graphviz version 12.1.2 (20240928.0832)
 -->
<!-- Title: G Pages: 1 -->
<svg xmlns="http://www.w3.org/2000/svg" viewBox="0 0 242.12 130.40" width="242" height="130">
<g id="graph0" class="graph" transform="scale(1 1) rotate(0) translate(4 126.4)">
<title>G</title>
<!-- Auth -->
<g id="node1" class="node">
<title>Auth</title>
<path fill="white" stroke="black" d="M89.46,-122.4C89.46,-122.4 36.66,-122.4 36.66,-122.4 30.66,-122.4 24.66,-116.4 24.66,-110.4 24.66,-110.4 24.66,-91.2 24.66,-91.2 24.66,-85.2 30.66,-79.2 36.66,-79.2 36.66,-79.2 89.46,-79.2 89.46,-79.2 95.46,-79.2 101.46,-85.2 101.46,-91.2 101.46,-91.2 101.46,-110.4 101.46,-110.4 101.46,-116.4 95.46,-122.4 89.46,-122.4"/>
<text text-anchor="middle" x="63.06" y="-93.6" font-family="Times,serif" font-size="24.00">Auth</text>
</g>
<!-- Logging -->
<g id="node3" class="node">
<title>Logging</title>
<path fill="white" stroke="black" d="M98.13,-43.2C98.13,-43.2 12,-43.2 12,-43.2 6,-43.2 0,-37.2 0,-31.2 0,-31.2 0,-12 0,-12 0,-6 6,0 12,0 12,0 98.13,0 98.13,0 104.13,0 110.13,-6 110.13,-12 110.13,-12 110.13,-31.2 110.13,-31.2 110.13,-37.2 104.13,-43.2 98.13,-43.2"/>
<text text-anchor="middle" x="55.06" y="-14.4" font-family="Times,serif" font-size="24.00">Logging</text>
</g>
<!-- Auth&#45;&gt;Logging -->
<g id="edge1" class="edge">
<title>Auth&#45;&gt;Logging</title>
<path fill="none" stroke="black" d="M60.88,-78.7C60.12,-71.39 59.25,-63 58.42,-54.99"/>
<polygon fill="black" stroke="black" points="61.92,-54.76 57.4,-45.18 54.95,-55.48 61.92,-54.76"/>
</g>
<!-- Metrics -->
<g id="node4" class="node">
<title>Metrics</title>
<path fill="white" stroke="black" d="M222.12,-43.2C222.12,-43.2 144.01,-43.2 144.01,-43.2 138.01,-43.2 132.01,-37.2 132.01,-31.2 132.01,-31.2 132.01,-12 132.01,-12 132.01,-6 138.01,0 144.01,0 144.01,0 222.12,0 222.12,0 228.12,0 234.12,-6 234.12,-12 234.12,-12 234.12,-31.2 234.12,-31.2 234.12,-37.2 228.12,-43.2 222.12,-43.2"/>
<text text-anchor="middle" x="183.06" y="-14.4" font-family="Times,serif" font-size="24.00">Metrics</text>
</g>
<!-- Auth&#45;&gt;Metrics -->
<g id="edge2" class="edge">
<title>Auth&#45;&gt;Metrics</title>
<path fill="none" stroke="black" d="M95.85,-78.7C109.74,-69.77 126.1,-59.25 140.88,-49.74"/>
<polygon fill="black" stroke="black" points="142.52,-52.84 149.04,-44.49 138.74,-46.96 142.52,-52.84"/>
</g>
<!-- API -->
<g id="node2" class="node">
<title>API</title>
<path fill="white" stroke="black" d="M195.8,-122.4C195.8,-122.4 152.33,-122.4 152.33,-122.4 146.33,-122.4 140.33,-116.4 140.33,-110.4 140.33,-110.4 140.33,-91.2 140.33,-91.2 140.33,-85.2 146.33,-79.2 152.33,-79.2 152.33,-79.2 195.8,-79.2 195.8,-79.2 201.8,-79.2 207.8,-85.2 207.8,-91.2 207.8,-91.2 207.8,-110.4 207.8,-110.4 207.8,-116.4 201.8,-122.4 195.8,-122.4"/>
<text text-anchor="middle" x="174.06" y="-93.6" font-family="Times,serif" font-size="24.00">API</text>
</g>
<!-- API&#45;&gt;Logging -->
<g id="edge3" class="edge">
<title>API&#45;&gt;Logging</title>
<path fill="none" stroke="black" d="M141.55,-78.7C127.77,-69.77 111.55,-59.25 96.9,-49.74"/>
<polygon fill="black" stroke="black" points="99.11,-47 88.81,-44.49 95.3,-52.87 99.11,-47"/>
</g>
<!-- API&#45;&gt;Metrics -->
<g id="edge4" class="edge">
<title>API&#45;&gt;Metrics</title>
<path fill="none" stroke="black" d="M176.52,-78.7C177.38,-71.39 178.35,-63 179.29,-54.99"/>
<polygon fill="black" stroke="black" points="182.75,-55.51 180.43,-45.17 175.8,-54.7 182.75,-55.51"/>
</g>
</g>
</svg>
