<?xml version="1.0" encoding="UTF-8" standalone="no"?>
<!DOCTYPE svg PUBLIC "-//W3C//DTD SVG 1.1//EN"
 "http://www.w3.org/Graphics/SVG/1.1/DTD/svg11.dtd">
<!-- Generated by graphviz version 12.1.2 (20240928.0832)
 -->
<!-- Title: G Pages: 1 -->
<svg xmlns="http://www.w3.org/2000/svg" viewBox="0 0 195.78 209.60" width="196" height="210">
<g id="graph0" class="graph" transform="scale(1 1) rotate(0) translate(4 205.6)">
<title>G</title>
<!-- App -->
<g id="node1" class="node">
<title>App</title>
<path fill="white" stroke="black" d="M113.47,-201.6C113.47,-201.6 67.33,-201.6 67.33,-201.6 61.33,-201.6 55.33,-195.6 55.33,-189.6 55.33,-189.6 55.33,-170.4 55.33,-170.4 55.33,-164.4 61.33,-158.4 67.33,-158.4 67.33,-158.4 113.47,-158.4 113.47,-158.4 119.47,-158.4 125.47,-164.4 125.47,-170.4 125.47,-170.4 125.47,-189.6 125.47,-189.6 125.47,-195.6 119.47,-201.6 113.47,-201.6"/>
<text text-anchor="middle" x="90.4" y="-172.8" font-family="Times,serif" font-size="24.00">App</text>
</g>
<!-- Auth -->
<g id="node2" class="node">
<title>Auth</title>
<path fill="white" stroke="black" d="M64.8,-122.4C64.8,-122.4 12,-122.4 12,-122.4 6,-122.4 0,-116.4 0,-110.4 0,-110.4 0,-91.2 0,-91.2 0,-85.2 6,-79.2 12,-79.2 12,-79.2 64.8,-79.2 64.8,-79.2 70.8,-79.2 76.8,-85.2 76.8,-91.2 76.8,-91.2 76.8,-110.4 76.8,-110.4 76.8,-116.4 70.8,-122.4 64.8,-122.4"/>
<text text-anchor="middle" x="38.4" y="-93.6" font-family="Times,serif" font-size="24.00">Auth</text>
</g>
<!-- App&#45;&gt;Auth -->
<g id="edge1" class="edge">
<title>App&#45;&gt;Auth</title>
<path fill="none" stroke="black" d="M76.19,-157.9C70.86,-149.99 64.69,-140.83 58.9,-132.24"/>
<polygon fill="black" stroke="black" points="61.93,-130.46 53.44,-124.13 56.12,-134.37 61.93,-130.46"/>
</g>
<!-- Cache -->
<g id="node3" class="node">
<title>Cache</title>
<path fill="white" stroke="black" d="M175.78,-122.4C175.78,-122.4 111.02,-122.4 111.02,-122.4 105.02,-122.4 99.02,-116.4 99.02,-110.4 99.02,-110.4 99.02,-91.2 99.02,-91.2 99.02,-85.2 105.02,-79.2 111.02,-79.2 111.02,-79.2 175.78,-79.2 175.78,-79.2 181.78,-79.2 187.78,-85.2 187.78,-91.2 187.78,-91.2 187.78,-110.4 187.78,-110.4 187.78,-116.4 181.78,-122.4 175.78,-122.4"/>
<text text-anchor="middle" x="143.4" y="-93.6" font-family="Times,serif" font-size="24.00">Cache</text>
</g>
<!-- App&#45;&gt;Cache -->
<g id="edge2" class="edge">
<title>App&#45;&gt;Cache</title>
<path fill="none" stroke="black" d="M104.88,-157.9C110.32,-149.99 116.6,-140.83 122.5,-132.24"/>
<polygon fill="black" stroke="black" points="125.3,-134.34 128.08,-124.12 119.53,-130.38 125.3,-134.34"/>
</g>
<!-- Core -->
<g id="node4" class="node">
<title>Core</title>
<path fill="white" stroke="black" d="M116.13,-43.2C116.13,-43.2 64.67,-43.2 64.67,-43.2 58.67,-43.2 52.67,-37.2 52.67,-31.2 52.67,-31.2 52.67,-12 52.67,-12 52.67,-6 58.67,0 64.67,0 64.67,0 116.13,0 116.13,0 122.13,0 128.13,-6 128.13,-12 128.13,-12 128.13,-31.2 128.13,-31.2 128.13,-37.2 122.13,-43.2 116.13,-43.2"/>
<text text-anchor="middle" x="90.4" y="-14.4" font-family="Times,serif" font-size="24.00">Core</text>
</g>
<!-- Auth&#45;&gt;Core -->
<g id="edge3" class="edge">
<title>Auth&#45;&gt;Core</title>
<path fill="none" stroke="black" d="M52.61,-78.7C57.94,-70.79 64.11,-61.63 69.9,-53.04"/>
<polygon fill="black" stroke="black" points="72.68,-55.17 75.36,-44.93 66.87,-51.26 72.68,-55.17"/>
</g>
<!-- Cache&#45;&gt;Core -->
<g id="edge4" class="edge">
<title>Cache&#45;&gt;Core</title>
<path fill="none" stroke="black" d="M128.92,-78.7C123.48,-70.79 117.2,-61.63 111.3,-53.04"/>
<polygon fill="black" stroke="black" points="114.27,-51.18 105.72,-44.92 108.5,-55.14 114.27,-51.18"/>
</g>
</g>
</svg>
