<?xml version="1.0" encoding="UTF-8" standalone="no"?>
<!DOCTYPE svg PUBLIC "-//W3C//DTD SVG 1.1//EN"
 "http://www.w3.org/Graphics/SVG/1.1/DTD/svg11.dtd">
<!-- Generated by graphviz version 12.1.2 (20240928.0832)
 -->
<!-- Title: G Pages: 1 -->
<svg xmlns="http://www.w3.org/2000/svg" viewBox="0 0 120.13 209.60" width="120" height="210">
<g id="graph0" class="graph" transform="scale(1 1) rotate(0) translate(4 205.6)">
<title>G</title>
<!-- App -->
<g id="node1" class="node">
<title>App</title>
<path fill="white" stroke="black" d="M97.47,-201.6C97.47,-201.6 51.33,-201.6 51.33,-201.6 45.33,-201.6 39.33,-195.6 39.33,-189.6 39.33,-189.6 39.33,-170.4 39.33,-170.4 39.33,-164.4 45.33,-158.4 51.33,-158.4 51.33,-158.4 97.47,-158.4 97.47,-158.4 103.47,-158.4 109.47,-164.4 109.47,-170.4 109.47,-170.4 109.47,-189.6 109.47,-189.6 109.47,-195.6 103.47,-201.6 97.47,-201.6"/>
<text text-anchor="middle" x="74.4" y="-172.8" font-family="Times,serif" font-size="24.00">App</text>
</g>
<!-- Auth -->
<g id="node2" class="node">
<title>Auth</title>
<path fill="white" stroke="black" d="M64.8,-122.4C64.8,-122.4 12,-122.4 12,-122.4 6,-122.4 0,-116.4 0,-110.4 0,-110.4 0,-91.2 0,-91.2 0,-85.2 6,-79.2 12,-79.2 12,-79.2 64.8,-79.2 64.8,-79.2 70.8,-79.2 76.8,-85.2 76.8,-91.2 76.8,-91.2 76.8,-110.4 76.8,-110.4 76.8,-116.4 70.8,-122.4 64.8,-122.4"/>
<text text-anchor="middle" x="38.4" y="-93.6" font-family="Times,serif" font-size="24.00">Auth</text>
</g>
<!-- App&#45;&gt;Auth -->
<g id="edge1" class="edge">
<title>App&#45;&gt;Auth</title>
<path fill="none" stroke="black" d="M64.56,-157.9C60.99,-150.25 56.88,-141.42 52.98,-133.07"/>
<polygon fill="black" stroke="black" points="56.26,-131.83 48.86,-124.24 49.92,-134.78 56.26,-131.83"/>
</g>
<!-- Core -->
<g id="node3" class="node">
<title>Core</title>
<path fill="white" stroke="black" d="M100.13,-43.2C100.13,-43.2 48.67,-43.2 48.67,-43.2 42.67,-43.2 36.67,-37.2 36.67,-31.2 36.67,-31.2 36.67,-12 36.67,-12 36.67,-6 42.67,0 48.67,0 48.67,0 100.13,0 100.13,0 106.13,0 112.13,-6 112.13,-12 112.13,-12 112.13,-31.2 112.13,-31.2 112.13,-37.2 106.13,-43.2 100.13,-43.2"/>
<text text-anchor="middle" x="74.4" y="-14.4" font-family="Times,serif" font-size="24.00">Core</text>
</g>
<!-- App&#45;&gt;Core -->
<g id="edge3" class="edge">
<title>App&#45;&gt;Core</title>
<path fill="none" stroke="black" d="M80.42,-157.96C83.14,-147.39 86.05,-134.32 87.4,-122.4 89.56,-103.32 89.56,-98.28 87.4,-79.2 86.49,-71.19 84.88,-62.66 83.1,-54.72"/>
<polygon fill="black" stroke="black" points="86.53,-54.01 80.78,-45.11 79.72,-55.65 86.53,-54.01"/>
</g>
<!-- Auth&#45;&gt;Core -->
<g id="edge2" class="edge">
<title>Auth&#45;&gt;Core</title>
<path fill="none" stroke="black" d="M48.24,-78.7C51.81,-71.05 55.92,-62.22 59.82,-53.87"/>
<polygon fill="black" stroke="black" points="62.88,-55.58 63.94,-45.04 56.54,-52.63 62.88,-55.58"/>
</g>
</g>
</svg>
